<svg xmlns="http://www.w3.org/2000/svg" width="1400" height="720" viewBox="0 0 1400 720" role="img" aria-labelledby="title desc"><title id="title">Hearts game table</title><desc id="desc">Hearts table with scoreboard, trick area, passing controls, and player hand.</desc><defs><linearGradient id="bg" x1="0" y1="0" x2="1" y2="1"><stop stop-color="#eef7fb"/><stop offset="1" stop-color="#d9ebf4"/></linearGradient><filter id="s"><feDropShadow dx="0" dy="8" stdDeviation="8" flood-opacity=".18"/></filter></defs><rect width="1400" height="720" fill="url(#bg)"/><rect x="50" y="45" width="1300" height="630" rx="24" fill="#fff" filter="url(#s)"/><text x="82" y="92" font-family="Arial" font-size="18" font-weight="700" fill="#b63d4b">AVOID THE POINTS</text><text x="82" y="140" font-family="Georgia,serif" font-size="48" font-weight="700" fill="#203b49">Hearts</text><rect x="1170" y="78" width="140" height="44" rx="8" fill="#edf3f6"/><text x="1203" y="107" font-family="Arial" font-size="17" fill="#294654">All games</text><g font-family="Arial"><g transform="translate(82 175)"><rect width="290" height="90" rx="14" fill="#f8fbfc" stroke="#d4e4eb"/><text x="20" y="32" font-size="18" fill="#294654">🦊 Family Host</text><text x="235" y="38" font-size="30" font-weight="700" fill="#b63d4b">12</text><text x="20" y="66" font-size="14" fill="#6a7f88">4 this hand</text></g><g transform="translate(388 175)"><rect width="290" height="90" rx="14" fill="#f8fbfc" stroke="#d4e4eb"/><text x="20" y="32" font-size="18" fill="#294654">🐙 Ruby</text><text x="235" y="38" font-size="30" font-weight="700" fill="#b63d4b">19</text><text x="20" y="66" font-size="14" fill="#6a7f88">0 this hand</text></g><g transform="translate(694 175)"><rect width="290" height="90" rx="14" fill="#f8fbfc" stroke="#d4e4eb"/><text x="20" y="32" font-size="18" fill="#294654">🦁 Milo</text><text x="235" y="38" font-size="30" font-weight="700" fill="#b63d4b">23</text><text x="20" y="66" font-size="14" fill="#6a7f88">13 this hand</text></g><g transform="translate(1000 175)"><rect width="290" height="90" rx="14" fill="#f8fbfc" stroke="#d4e4eb"/><text x="20" y="32" font-size="18" fill="#294654">🐼 Hazel</text><text x="235" y="38" font-size="30" font-weight="700" fill="#b63d4b">7</text><text x="20" y="66" font-size="14" fill="#6a7f88">0 this hand</text></g></g><rect x="330" y="292" width="740" height="210" rx="22" fill="#d9edf2"/><text x="550" y="330" font-family="Arial" font-size="18" fill="#496874">Current trick · Hearts are broken</text><g filter="url(#s)" font-family="Arial"><g transform="translate(465 350)"><rect width="92" height="132" rx="10" fill="white"/><text x="12" y="34" font-size="23">10♣</text><text x="24" y="82" font-size="42">♣</text></g><g transform="translate(575 350)"><rect width="92" height="132" rx="10" fill="white"/><text x="12" y="34" font-size="23" fill="#c73545">Q♥</text><text x="24" y="82" font-size="42" fill="#c73545">♥</text></g><g transform="translate(685 350)"><rect width="92" height="132" rx="10" fill="white"/><text x="12" y="34" font-size="23">K♣</text><text x="24" y="82" font-size="42">♣</text></g><g transform="translate(795 350)"><rect width="92" height="132" rx="10" fill="white"/><text x="12" y="34" font-size="23">A♠</text><text x="24" y="82" font-size="42">♠</text></g></g><text x="82" y="548" font-family="Arial" font-size="18" font-weight="700" fill="#294654">🦊 Family Host · Select three cards to pass left</text><g transform="translate(82 565)" font-family="Arial" filter="url(#s)"><g fill="white" stroke="#d3dde2"><rect width="75" height="105" rx="8"/><rect x="72" width="75" height="105" rx="8"/><rect x="144" width="75" height="105" rx="8"/><rect x="216" width="75" height="105" rx="8"/><rect x="288" width="75" height="105" rx="8"/><rect x="360" width="75" height="105" rx="8"/><rect x="432" width="75" height="105" rx="8"/><rect x="504" width="75" height="105" rx="8"/><rect x="576" width="75" height="105" rx="8"/><rect x="648" width="75" height="105" rx="8"/><rect x="720" width="75" height="105" rx="8"/><rect x="792" width="75" height="105" rx="8"/><rect x="864" width="75" height="105" rx="8"/></g><g font-size="17"><text x="9" y="24">2♣</text><text x="81" y="24">5♣</text><text x="153" y="24" fill="#c73545">4♥</text><text x="225" y="24">8♠</text><text x="297" y="24" fill="#c73545">9♦</text><text x="369" y="24">J♣</text><text x="441" y="24" fill="#c73545">Q♥</text><text x="513" y="24">Q♠</text><text x="585" y="24">K♣</text><text x="657" y="24" fill="#c73545">K♦</text><text x="729" y="24">A♣</text><text x="801" y="24" fill="#c73545">A♥</text><text x="873" y="24">A♠</text></g></g><rect x="1090" y="578" width="190" height="56" rx="10" fill="#b63d4b"/><text x="1137" y="613" font-family="Arial" font-size="18" font-weight="700" fill="white">Pass 3 cards</text></svg>